<svg xmlns="http://www.w3.org/2000/svg" viewBox="0 0 200 220">
  <rect width="200" height="220" fill="white"/>
  <!-- Body -->
  <ellipse cx="115" cy="152" rx="62" ry="44" fill="white" stroke="#1a1a1a" stroke-width="3.5" stroke-linejoin="round"/>
  <!-- Neck -->
  <path d="M74 106 Q90 118 96 132" fill="none" stroke="#1a1a1a" stroke-width="10" stroke-linecap="round"/>
  <!-- Head -->
  <circle cx="52" cy="82" r="32" fill="white" stroke="#1a1a1a" stroke-width="3.5"/>
  <!-- Horn -->
  <path d="M52 50 L44 16 L60 16 Z" fill="white" stroke="#1a1a1a" stroke-width="3" stroke-linejoin="round"/>
  <line x1="50" y1="46" x2="52" y2="20" stroke="#1a1a1a" stroke-width="1.5"/>
  <!-- Ear -->
  <path d="M64 54 L72 40 L76 56" fill="white" stroke="#1a1a1a" stroke-width="2.5" stroke-linejoin="round"/>
  <!-- Mane -->
  <path d="M52 52 Q36 64 40 84" fill="none" stroke="#1a1a1a" stroke-width="2.5" stroke-linecap="round"/>
  <path d="M64 52 Q76 64 72 82" fill="none" stroke="#1a1a1a" stroke-width="2.5" stroke-linecap="round"/>
  <path d="M76 60 Q86 72 84 88" fill="none" stroke="#1a1a1a" stroke-width="2" stroke-linecap="round"/>
  <!-- Eye -->
  <circle cx="38" cy="79" r="6" fill="#1a1a1a"/>
  <circle cx="37" cy="78" r="2.5" fill="white"/>
  <!-- Nostril -->
  <ellipse cx="28" cy="92" rx="3.5" ry="2.5" fill="#1a1a1a"/>
  <!-- Smile -->
  <path d="M24 98 Q34 106 44 100" fill="none" stroke="#1a1a1a" stroke-width="2.5" stroke-linecap="round"/>
  <!-- Front legs -->
  <path d="M80 188 L76 210" stroke="#1a1a1a" stroke-width="4" stroke-linecap="round"/>
  <ellipse cx="74" cy="213" rx="9" ry="4.5" fill="white" stroke="#1a1a1a" stroke-width="2.5"/>
  <path d="M98 192 L98 212" stroke="#1a1a1a" stroke-width="4" stroke-linecap="round"/>
  <ellipse cx="98" cy="215" rx="9" ry="4.5" fill="white" stroke="#1a1a1a" stroke-width="2.5"/>
  <!-- Back legs -->
  <path d="M130 192 L132 212" stroke="#1a1a1a" stroke-width="4" stroke-linecap="round"/>
  <ellipse cx="132" cy="215" rx="9" ry="4.5" fill="white" stroke="#1a1a1a" stroke-width="2.5"/>
  <path d="M150 188 L154 210" stroke="#1a1a1a" stroke-width="4" stroke-linecap="round"/>
  <ellipse cx="155" cy="213" rx="9" ry="4.5" fill="white" stroke="#1a1a1a" stroke-width="2.5"/>
  <!-- Tail -->
  <path d="M174 142 Q196 124 190 154 Q184 174 172 168" fill="none" stroke="#1a1a1a" stroke-width="3" stroke-linecap="round"/>
  <path d="M176 136 Q198 116 192 146" fill="none" stroke="#1a1a1a" stroke-width="2" stroke-linecap="round"/>
  <!-- Star on body -->
  <path d="M112 150 L114 144 L116 150 L122 150 L117 154 L119 160 L114 156 L109 160 L111 154 L106 150 Z" fill="#1a1a1a"/>
</svg>
